<?xml version="1.0" encoding="UTF-8"?>
<svg id="Layer_2" xmlns="http://www.w3.org/2000/svg" viewBox="0 0 86.2 242.61">
  <defs>
    <style>
      .cls-1 {
        fill: none;
        stroke: #fff;
        stroke-miterlimit: 10;
      }
    </style>
  </defs>
  <g id="Layer_1-2" data-name="Layer_1">
    <g>
      <path class="cls-1" d="M85.63,72.17c-.23,2.66-9.79,139.03-9.79,139.03,0,0-.71,5.18-.53,11.79.18,6.61.53,13.76.53,13.76,0,0-2.6,5.36-32.74,5.36s-32.74-5.36-32.74-5.36c0,0,.35-7.15.53-13.76.18-6.61-.53-11.79-.53-11.79,0,0-9.56-136.37-9.79-139.03-.24-2.66-.12-4.51,3.93-5.32,7.3-1.12,16.14-1.78,23.52-2.16,8.51-.43,15.08-.5,15.08-.5,0,0,7.3.07,16.49.58,7.08.38,15.27,1.03,22.11,2.08,4.05.81,4.16,2.66,3.93,5.32Z"/>
      <path class="cls-1" d="M58.89,64.77c-9.19-.51-16.49-.58-16.49-.58,0,0-6.57.07-15.08.5l4.57-8.26.06-.1h22.28l.06.1,4.6,8.34Z"/>
      <path class="cls-1" d="M68.19,2.78c-.23,2.41-8.17,50.81-8.17,50.81,0,0-.53,2.84-2.83,2.84h-28.17c-2.3,0-2.83-2.84-2.83-2.84,0,0-7.94-48.4-8.17-50.81-.22-2.41,2.49-2.28,2.49-2.28h45.19s2.71-.13,2.49,2.28Z"/>
    </g>
  </g>
</svg>