<?xml version="1.0" encoding="UTF-8"?>
<svg id="Layer_2" xmlns="http://www.w3.org/2000/svg" viewBox="0 0 126.85 224.1">
  <defs>
    <style>
      .cls-1 {
        fill: none;
        stroke: #fff;
        stroke-miterlimit: 10;
      }
    </style>
  </defs>
  <g id="Layer_1-2" data-name="Layer_1">
    <g>
      <path class="cls-1" d="M105.35,196.47s-3.05,5.09-5.15,18.03c-.61,3.33-.86,5.3-4.44,6.04-3.42.71-19.7,2.87-31.58,3.04-.26,0-.51.02-.76,0-.25.01-.5,0-.76,0-11.88-.17-28.16-2.33-31.59-3.04-3.57-.74-3.82-2.71-4.43-6.04-2.1-12.94-5.15-18.03-5.15-18.03,0,0-22.71-50.5-20.89-80.71,1.83-30.21,36.07-38.04,41.53-39.64,5.47-1.61,7.61-6.11,7.61-6.11h27.36s2.14,4.5,7.61,6.11c5.46,1.6,39.7,9.43,41.53,39.64,1.82,30.21-20.89,80.71-20.89,80.71Z"/>
      <path class="cls-1" d="M63.8,223.58v.02c-.25,0-.5,0-.76-.01.25.01.5,0,.76,0Z"/>
      <path class="cls-1" d="M63.8,223.59c-.26.01-.51.01-.76.01v-.02c.26,0,.51.02.76,0Z"/>
      <path class="cls-1" d="M93.85,10.55c-18.23-3.59-30.43-3.43-30.43-3.43,0,0-12.2-.16-30.43,3.43C49.94-.19,63.42.51,63.42.51c0,0,13.48-.7,30.43,10.04Z"/>
      <path class="cls-1" d="M104.1,16.31c-.2,1.4.14,10.33-5.68,20.72-5.82,10.4-14.59,11.37-14.64,19.41-.03,4.42-.03,8.09-.02,10.49.01,1.7-1.36,3.08-3.06,3.08h-34.56c-1.7,0-3.07-1.38-3.06-3.08,0-2.4.01-6.07-.02-10.49-.06-8.04-8.82-9.01-14.64-19.41-5.82-10.39-5.48-19.32-5.68-20.72-.2-1.4.2-3.4,2.6-4.1,2.65-.63,5.21-1.18,7.65-1.66,18.23-3.59,30.43-3.43,30.43-3.43,0,0,12.2-.16,30.43,3.43,2.44.48,5,1.03,7.65,1.66,2.4.7,2.8,2.7,2.6,4.1Z"/>
    </g>
  </g>
</svg>