<?xml version="1.0" encoding="UTF-8"?>
<svg id="Layer_2" xmlns="http://www.w3.org/2000/svg" viewBox="0 0 87.11 261.91">
  <defs>
    <style>
      .cls-1 {
        fill: none;
        stroke: #fff;
        stroke-miterlimit: 10;
      }
    </style>
  </defs>
  <g id="Layer_1-2" data-name="Layer_1">
    <path class="cls-1" d="M83.72,255.41c-3.54,2.68-11.95,6-11.95,6H15.34s-8.41-3.32-11.95-6c-3.53-2.68-2.83-6.36-2.83-6.36,0,0,9.21-59.91,12.29-95.63C15.92,117.7,3.63,76.22,2.48,73.16c-1.15-3.07,1.66-4.85,1.66-4.85l25.08-16.39v-2.13c-.71,0-1.28-.57-1.28-1.28v-11.16c0-.7.57-1.28,1.28-1.28h-1.83c-1.09,0-1.97-.88-1.97-1.97,0-.54.22-1.04.58-1.4.35-.36,1.36-.58,1.9-.58v-2.77l-16.18-4.2V7.79L20.75.5h45.62l9.03,7.29v17.36l-15.68,4.2v2.77c1.1,0,1.98.89,1.98,1.98,0,.54-.22,1.04-.58,1.39-.35.36-.85.58-1.4.58h-1.82c.71,0,1.28.58,1.28,1.28v11.16c0,.71-.57,1.28-1.28,1.28v2.13l25.07,16.39s2.81,1.78,1.66,4.85c-1.15,3.06-13.44,44.54-10.36,80.26,3.07,35.72,12.29,95.63,12.29,95.63,0,0,.69,3.68-2.84,6.36Z"/>
  </g>
</svg>