<?xml version="1.0" encoding="UTF-8"?>
<svg id="Layer_2" xmlns="http://www.w3.org/2000/svg" viewBox="0 0 144.87 192.94">
  <defs>
    <style>
      .cls-1 {
        fill: none;
        stroke: #fff;
        stroke-miterlimit: 10;
      }
    </style>
  </defs>
  <g id="Layer_1-2" data-name="Layer_1">
    <g>
      <path class="cls-1" d="M144.37,116.67c0,45.76-41.71,74.07-41.71,74.07,0,0-9.58,1.7-30.23,1.7s-30.22-1.7-30.22-1.7c0,0-41.71-28.31-41.71-74.07S50.09,44.74,50.09,44.74h44.69s49.59,26.18,49.59,71.93Z"/>
      <path class="cls-1" d="M94.78,44.74h-44.69s7.72-5.72,7.72-15.62-5.73-12.43-5.73-12.43h3.03l17.32.87,17.33-.87h3.02s-5.72,2.53-5.72,12.43,7.72,15.62,7.72,15.62Z"/>
      <polygon class="cls-1" points="112.26 2.5 112.26 15.56 89.76 16.69 72.43 17.56 55.11 16.69 32.61 15.56 32.61 2.5 72.43 .5 112.26 2.5"/>
    </g>
  </g>
</svg>