<?xml version="1.0" encoding="UTF-8"?>
<svg id="Layer_2" xmlns="http://www.w3.org/2000/svg" viewBox="0 0 113.24 232.49">
  <defs>
    <style>
      .cls-1 {
        fill: none;
        stroke: #fff;
        stroke-miterlimit: 10;
      }
    </style>
  </defs>
  <g id="Layer_1-2" data-name="Layer_1">
    <path class="cls-1" d="M112.74,167.96c0,30.83-30.4,61.45-30.4,61.45,0,0-1.66,2.22-22.97,2.55-.88.01-1.8.02-2.75.03-.95-.01-1.87-.02-2.75-.03-21.3-.33-22.96-2.55-22.96-2.55,0,0-30.41-30.62-30.41-61.45s37.96-74.08,41.09-79.22c2.72-4.47,2.95-7.55,2.96-8.28h-1.05c-1.31,0-2.37-1.06-2.37-2.37v-8.1s-2.06-.6-2.06-4.12,2.06-4.28,2.06-4.28h2.47v-2.06c-2.1-.48-2.39-1.24-2.39-1.24,0,0-11.64-29.33-12.97-32.6-1.34-3.28,1-5.25,1-5.25L53.6,1.54c1.78-1.38,4.27-1.38,6.05,0l24.35,18.91s2.34,1.97,1,5.25c-1.33,3.27-12.97,32.6-12.97,32.6,0,0-.29.76-2.39,1.24v2.06h2.47s2.06.76,2.06,4.28-2.06,4.12-2.06,4.12v8.1c0,1.31-1.06,2.37-2.37,2.37h-1.04c.01.73.22,3.82,2.95,8.28,3.14,5.14,41.09,48.38,41.09,79.22Z"/>
  </g>
</svg>