<?xml version="1.0" encoding="UTF-8"?>
<svg id="Layer_2" xmlns="http://www.w3.org/2000/svg" viewBox="0 0 98.99 203.94">
  <defs>
    <style>
      .cls-1 {
        fill: none;
        stroke: #fff;
        stroke-miterlimit: 10;
      }
    </style>
  </defs>
  <g id="Layer_1-2" data-name="Layer_1">
    <g>
      <path class="cls-1" d="M98.41,95.88c-.95,8.86-13.97,76.28-13.97,76.28,0,0-.64,1.99-.75,10.38-.11,8.4,0,14.3,0,14.3,0,0,.33,2.61-3.33,3.57-3.67.96-13.52,3.03-30.86,3.03s-27.2-2.07-30.86-3.03c-3.67-.96-3.33-3.57-3.33-3.57,0,0,.1-5.9,0-14.3-.11-8.39-.76-10.38-.76-10.38,0,0-13.02-67.42-13.97-76.28-.95-8.87,6.97-8.39,6.97-8.39l23.86-.63,18.09-.48,18.96.5,22.99.61s7.91-.48,6.96,8.39Z"/>
      <polygon class="cls-1" points="68.02 86.88 49.06 86.38 30.97 86.86 36.01 79.6 62.97 79.6 68.02 86.88"/>
      <rect class="cls-1" x="31.63" y=".5" width="35.73" height="79.1" rx="2.72" ry="2.72"/>
    </g>
  </g>
</svg>