<?xml version="1.0" encoding="UTF-8"?>
<svg id="Layer_2" xmlns="http://www.w3.org/2000/svg" viewBox="0 0 122.77 246.53">
  <defs>
    <style>
      .cls-1 {
        fill: none;
        stroke: #fff;
        stroke-miterlimit: 10;
      }
    </style>
  </defs>
  <g id="Layer_1-2" data-name="Layer_1">
    <path class="cls-1" d="M122.27,61.97v172.35c0,6.47-5.24,11.71-11.71,11.71H12.22c-6.47,0-11.72-5.24-11.72-11.71V61.97c0-1.42,1.16-2.58,2.58-2.58h37.07v-11.3h-.05c-2.72,0-4.93-2.21-4.93-4.93V5.43c0-2.72,2.21-4.93,4.93-4.93h42.57c2.72,0,4.93,2.21,4.93,4.93v37.73c0,2.72-2.21,4.93-4.93,4.93h-.04v11.3h37.06c1.43,0,2.58,1.16,2.58,2.58Z"/>
  </g>
</svg>