<?xml version="1.0" encoding="UTF-8"?>
<svg id="Layer_2" xmlns="http://www.w3.org/2000/svg" viewBox="0 0 98.99 203.94">
  <defs>
    <style>
      .cls-1 {
        fill: none;
        stroke: #fff;
        stroke-miterlimit: 10;
      }
    </style>
  </defs>
  <g id="Layer_1-2" data-name="Layer_1">
    <path class="cls-1" d="M31.41,86.86l4.6-7.26h-1.65c-1.51,0-2.73-1.22-2.73-2.72V3.23c0-1.51,1.22-2.73,2.73-2.73h30.28c1.5,0,2.72,1.22,2.72,2.73v73.65c0,1.5-1.22,2.72-2.72,2.72h-1.67l5.04,7.27h.45s22.99.62,22.99.62c0,0,7.91-.48,6.96,8.39-.95,8.86-13.97,76.28-13.97,76.28,0,0-.64,1.99-.75,10.38-.11,8.4,0,14.3,0,14.3,0,0,.33,2.61-3.33,3.57-3.67.96-13.52,3.03-30.86,3.03s-27.2-2.07-30.86-3.03c-3.67-.96-3.33-3.57-3.33-3.57,0,0,.1-5.9,0-14.3-.11-8.39-.76-10.38-.76-10.38,0,0-13.02-67.42-13.97-76.28-.95-8.87,6.97-8.39,6.97-8.39l23.86-.63Z"/>
  </g>
</svg>