<?xml version="1.0" encoding="UTF-8"?>
<svg id="Layer_2" xmlns="http://www.w3.org/2000/svg" viewBox="0 0 87.11 261.91">
  <defs>
    <style>
      .cls-1 {
        fill: none;
        stroke: #fff;
        stroke-miterlimit: 10;
      }
    </style>
  </defs>
  <g id="Layer_1-2" data-name="Layer_1">
    <g>
      <path class="cls-1" d="M83.72,255.41c-3.54,2.68-11.95,6-11.95,6H15.34s-8.41-3.32-11.95-6c-3.53-2.68-2.83-6.36-2.83-6.36,0,0,9.21-59.91,12.29-95.63C15.92,117.7,3.63,76.22,2.48,73.16c-1.15-3.07,1.66-4.85,1.66-4.85l25.28-18.52h28.27l25.28,18.52s2.81,1.78,1.66,4.85c-1.15,3.06-13.44,44.54-10.36,80.26,3.07,35.72,12.29,95.63,12.29,95.63,0,0,.69,3.68-2.84,6.36Z"/>
      <rect class="cls-1" x="27.94" y="36.07" width="31.24" height="13.72" rx="1.28" ry="1.28"/>
      <rect class="cls-1" x="25.41" y="32.12" width="36.28" height="3.95" rx="1.98" ry="1.98"/>
      <polygon class="cls-1" points="75.4 7.79 75.4 25.15 58.09 32.12 29.04 32.12 11.72 25.15 11.72 7.79 20.75 .5 66.37 .5 75.4 7.79"/>
    </g>
  </g>
</svg>