<?xml version="1.0" encoding="UTF-8"?>
<svg id="Layer_2" xmlns="http://www.w3.org/2000/svg" viewBox="0 0 144.22 256.89">
  <defs>
    <style>
      .cls-1 {
        fill: none;
        stroke: #fff;
        stroke-miterlimit: 10;
      }
    </style>
  </defs>
  <g id="Layer_1-2" data-name="Layer_1">
    <path class="cls-1" d="M72.11,256.39h59.54c9.13-.13,10.83-3.46,11.59-4.6s.5-3.59,0-6.11-3.83-3.97-3.83-3.97v-92.09s-1.15-35.44-.36-39.76.26-7.09-1.44-8.66-18.7-5.97-27.68-9.84c-8.99-3.87-13.32-9.77-16.86-14.17s-2.57-9.9-2.57-9.9h2.08l.89-.85v-4.62l-1.27-1.54,4.58-47.31C90.72.41,72.11.5,72.11.5c0,0-18.61-.09-24.66,12.47l4.58,47.31-1.27,1.54v4.62l.89.85h2.08s.97,5.51-2.57,9.9c-3.54,4.4-7.87,10.3-16.86,14.17-8.99,3.87-25.98,8.27-27.68,9.84s-2.23,4.33-1.44,8.66-.36,39.76-.36,39.76v92.09s-3.33,1.45-3.83,3.97-.76,4.98,0,6.11,2.46,4.47,11.59,4.6h59.54Z"/>
  </g>
</svg>