<?xml version="1.0" encoding="UTF-8"?>
<svg id="Layer_2" xmlns="http://www.w3.org/2000/svg" viewBox="0 0 124.38 218.76">
  <defs>
    <style>
      .cls-1 {
        fill: none;
        stroke: #fff;
        stroke-miterlimit: 10;
      }
    </style>
  </defs>
  <g id="Layer_1-2" data-name="Layer_1">
    <path class="cls-1" d="M123.88,76.28v138.66s-.15,3.1-4.17,3.26c-4.03.15-57.52,0-57.52,0,0,0-53.49.15-57.52,0-4.03-.16-4.17-3.26-4.17-3.26V76.28l9.37-8.86h27.97v-19.16s-4.47-1.49-4.68-6.27c-.21-4.78,3.55-5.96,3.55-5.96v-2.12h-10.65l-6.93-7.23V7.73L26.05.5h72.27l6.94,7.23v18.95l-6.94,7.23h-10.65v2.12s3.76,1.18,3.55,5.96c-.21,4.78-4.68,6.27-4.68,6.27v19.16h27.97l9.37,8.86Z"/>
  </g>
</svg>